<!-- Generator: Adobe Illustrator 19.0.0, SVG Export Plug-In . SVG Version: 6.00 Build 0)  --><svg version="1.1" id="Capa_1" xmlns="http://www.w3.org/2000/svg" xmlns:xlink="http://www.w3.org/1999/xlink" x="0px" y="0px" viewBox="0 0 512 512" style="enable-background:new 0 0 512 512;" xml:space="preserve" height="32" width="32"><circle style="fill:#57A4FF;" cx="256" cy="256" r="256" /><path style="fill:#2488FF;" d="M509.549,291.562L336.345,118.357c-20.256-21.113-48.755-34.259-80.325-34.259l0,0  c-17.849,0-34.712,4.208-49.664,11.676c-1.943-0.352-3.942-0.545-5.987-0.545c-18.44,0-33.388,14.946-33.391,33.385  c-0.112,0.15-0.225,0.301-0.336,0.452c-18.715,2.844-33.055,19.003-33.055,38.511c0,10.615,4.251,20.234,11.137,27.261  c-0.001,0.189-0.007,0.376-0.007,0.565v42.296v2.226v2.226c0,5.729,2.451,10.902,6.339,14.563l-0.014,0.013l56.884,56.884  c-21.387,11.132-36.001,33.483-36.001,59.261v27.826l110.007,110.007C399.388,498.896,493.409,407.688,509.549,291.562z" /><path style="fill:#FFFFFF;" d="M340.097,400.696H171.903V372.87c0-36.883,29.9-66.783,66.783-66.783h34.628  c36.883,0,66.783,29.9,66.783,66.783v27.826H340.097z" /><path style="fill:#E1E3FA;" d="M273.314,306.087H256v94.609h84.097V372.87C340.097,335.987,310.197,306.087,273.314,306.087z" /><polygon points="243.655,373.488 256,390.184 256,390.323 256,390.323 256,390.184 256,390.184 268.345,373.488 262.469,327.919   277.024,306.087 234.976,306.087 249.531,327.919 " /><path style="fill:#1D1D1F;" d="M256,84.097L256,84.097c-17.85,0-34.714,4.208-49.665,11.676c-1.943-0.352-3.942-0.545-5.988-0.545  c-18.44,0-33.388,14.946-33.391,33.385c-0.112,0.15-0.225,0.301-0.336,0.452c-18.714,2.843-33.054,19.002-33.054,38.511  c0,10.615,4.252,20.234,11.137,27.261c-0.001,0.189-0.007,0.376-0.007,0.565v44.522h222.609v-44.522  C367.304,133.929,317.472,84.097,256,84.097z" /><path d="M256,84.097L256,84.097v155.826h111.304v-44.522C367.304,133.929,317.472,84.097,256,84.097z" /><path style="fill:#FFC477;" d="M189.217,262.184H164.73c-11.019,0-20.035-9.016-20.035-20.035v-4.452  c0-11.019,9.016-20.035,20.035-20.035h24.487V262.184z" /><path style="fill:#FFB655;" d="M322.783,262.184h24.487c11.019,0,20.035-9.016,20.035-20.035v-4.452  c0-11.019-9.016-20.035-20.035-20.035h-24.487V262.184z" /><path style="fill:#FFDAAA;" d="M292.927,182.933c-3.536-2.652-6.872-5.447-10.016-8.353  c-31.748,20.617-69.103,31.951-107.788,31.951h-18.678c-0.404,3.655-0.619,7.367-0.619,11.13  c0,55.325,44.849,100.174,100.174,100.174s100.174-44.849,100.174-100.174c0-3.795-0.218-7.54-0.63-11.225  C335.034,205.608,312.737,197.791,292.927,182.933z" /><path style="fill:#FFC477;" d="M355.544,206.436c-20.511-0.829-42.808-8.646-62.616-23.503c-3.536-2.652-6.872-5.447-10.016-8.353  c-8.587,5.576-17.588,10.467-26.911,14.645v128.61c55.325,0,100.174-44.849,100.174-100.174  C356.174,213.867,355.956,210.123,355.544,206.436z" /><circle cx="203.598" cy="232.036" r="14.377" /><circle cx="308.402" cy="232.036" r="14.377" /><path style="fill:#F072AE;" d="M256,295.575c18.442,0,33.391-14.949,33.391-33.391h-66.783  C222.609,280.625,237.558,295.575,256,295.575z" /><path style="fill:#ED539D;" d="M256,262.184v33.391c18.442,0,33.391-14.949,33.391-33.391H256z" /><g></g><g></g><g></g><g></g><g></g><g></g><g></g><g></g><g></g><g></g><g></g><g></g><g></g><g></g><g></g></svg>