<svg id="Layer_1" enable-background="new 0 0 512 512" height="32" viewBox="0 0 512 512" width="32" xmlns="http://www.w3.org/2000/svg"><g><g><g><g><g><g><g><g id="XMLID_1444_"><g id="XMLID_1445_"><g id="XMLID_1446_"><g id="XMLID_1447_"><g id="XMLID_1448_"><g id="XMLID_1449_"><g id="XMLID_1450_"><g id="XMLID_1645_"><g id="XMLID_1646_"><g id="XMLID_2709_"><g id="XMLID_2710_"><g id="XMLID_2711_"><g id="XMLID_2712_"><g id="XMLID_2713_"><g id="XMLID_2714_"><circle cx="256" cy="256" fill="#ff4a4a" r="256" /></g></g></g></g></g></g></g></g></g></g></g></g></g></g></g></g></g></g></g></g></g><path d="m512 256c0-20.827-2.487-41.073-7.181-60.458l-108.876-108.876-279.886 350.718 62.782 62.782c24.35 7.688 50.271 11.834 77.161 11.834 141.385 0 256-114.615 256-256z" fill="#d0004f" /><g><g><path d="m368.01 62.778-28.044 23.888-27.933-23.888-28.044 23.888-27.933-23.888-28.045 23.888-27.932-23.888-28.045 23.888-27.933-23.888-28.044 23.888v350.718h279.886v-350.718z" fill="#fff" /><path d="m395.94 86.67v350.71h-139.94v-374.55l.06-.05 27.93 23.89 28.04-23.89 27.94 23.89 28.04-23.89z" fill="#f4f1f1" /><path d="m207.627 199.672c-1.47-.52-2.969-1.059-4.469-1.619v-26.063c3.19 1.088 5.047 2.668 5.193 2.795l-.075-.068 10.17-11.025c-.35-.322-6.004-5.419-15.288-7.161v-12.226h-15v12.756c-.585.147-1.177.31-1.775.49-9.237 2.782-16.135 10.671-18.004 20.589-1.712 9.087 1.229 17.874 7.678 22.932 3.126 2.452 6.95 4.699 12.102 7.044v34.184c-3.871-.477-6.698-1.699-11.187-4.635l-6.276-4.106-8.212 12.553 6.276 4.106c7.585 4.961 12.894 6.645 19.398 7.159v12.799h15v-13.499c13.166-3.194 21.609-14.377 23.462-25.403 2.399-14.271-5.056-26.675-18.993-31.602zm-22.313-10.402c-1.994-1.564-2.855-4.843-2.194-8.352.516-2.737 2.097-5.936 5.039-7.83v18.135c-1.04-.636-1.996-1.287-2.845-1.953zm26.514 39.517c-.774 4.605-3.713 9.47-8.669 12.009v-26.785c9.709 3.737 9.097 12.227 8.669 14.776z" fill="#8ee26b" /><g><g><g><path d="m256 160.322h93.516v30h-93.516z" fill="#2b2b2b" /></g></g></g><g><g><path d="m256 224.159h93.516v30h-93.516z" fill="#2b2b2b" /></g></g><g><g><path d="m162.484 301.08h187.033v30h-187.033z" fill="#ffb454" /></g></g><g><g><path d="m162.484 361h187.033v30h-187.033z" fill="#ffb454" /></g></g></g><g><g><path d="m256 301.08h93.52v30h-93.52z" fill="#ff8659" /></g></g><g><g><path d="m256 361h93.52v30h-93.52z" fill="#ff8659" /></g></g></g></g></svg>