<!-- Generator: Adobe Illustrator 19.0.0, SVG Export Plug-In . SVG Version: 6.00 Build 0)  --><svg version="1.1" id="Layer_1" xmlns="http://www.w3.org/2000/svg" xmlns:xlink="http://www.w3.org/1999/xlink" x="0px" y="0px" viewBox="0 0 512 512" style="enable-background:new 0 0 512 512;" xml:space="preserve" height="32" width="32"><circle style="fill:#95F0F3;" cx="256" cy="256" r="256" /><path style="fill:#3BDBFF;" d="M508.402,298.9L408.176,198.78c0.339-0.339-11.123,20.602-25.865,42.991l-88.694-88.694  c0,1.567-41.535,89.6-41.535,89.6l53.139,53.138c-12.309,1.638-26.048,3.468-40.573,5.402L164.571,201.143  c-1.154-1.154-14.945,93.701-18.146,115.833c-50.264,6.709-89.479,11.96-89.479,12.014l182.459,182.459  C244.894,511.801,250.423,512,256,512C382.764,512,487.99,419.858,508.402,298.9z" /><path style="fill:#1E495F;" d="M56.947,328.991c0-42.206,34.214-76.42,76.42-76.42s76.42,34.214,76.42,76.42H56.947z" /><circle style="fill:#F7CB09;" cx="133.371" cy="227.746" r="41.374" /><path style="fill:#1D384E;" d="M302.213,328.991c0-42.206,34.214-76.42,76.42-76.42s76.421,34.214,76.421,76.42H302.213z" /><circle style="fill:#FFB541;" cx="378.629" cy="227.746" r="41.374" /><path style="fill:#2B5E72;" d="M153.817,328.991c0-56.434,45.749-102.183,102.183-102.183s102.183,45.749,102.183,102.183H153.817z" /><path style="fill:#1E495F;" d="M256,226.808c-0.174,0-0.348,0.005-0.522,0.006V328.99h102.705  C358.183,272.556,312.434,226.808,256,226.808z" /><circle style="fill:#FFB541;" cx="256" cy="193.609" r="55.322" /><path style="fill:#FFA200;" d="M256,138.293c-0.176,0-0.348,0.011-0.522,0.014v110.617c0.174,0.002,0.347,0.014,0.522,0.014  c30.554,0,55.322-24.768,55.322-55.322S286.554,138.293,256,138.293z" /><g></g><g></g><g></g><g></g><g></g><g></g><g></g><g></g><g></g><g></g><g></g><g></g><g></g><g></g><g></g></svg>