<!-- Generator: Adobe Illustrator 19.0.0, SVG Export Plug-In . SVG Version: 6.00 Build 0)  --><svg version="1.1" id="Layer_1" xmlns="http://www.w3.org/2000/svg" xmlns:xlink="http://www.w3.org/1999/xlink" x="0px" y="0px" viewBox="0 0 512 512" style="enable-background:new 0 0 512 512;" xml:space="preserve" height="48" width="48"><path style="fill:#80DEEA;" d="M505.461,198.261C479.279,84.684,377.53,0,256,0C114.616,0,0,114.615,0,256  c0,124.319,88.622,227.926,206.133,251.129L505.461,198.261z" /><path style="fill:#00BCD4;" d="M512,256c0-19.856-2.262-39.182-6.539-57.739L435.2,128l-271.658,52.875l-43.095-43.095  l-47.223,47.222l47.304,47.304l-47.304,47.304l47.304,47.304L73.224,374.22l132.91,132.91C222.265,510.315,238.935,512,256,512  C397.385,512,512,397.384,512,256z" /><polygon style="fill:#263238;" points="435.2,128 435.2,194.783 293.843,194.783 244.369,161.391 293.843,128 " /><rect x="152.487" y="128" style="fill:#006064;" width="141.357" height="66.783" /><path style="fill:#263238;" d="M96.835,128l-18.214,33.391l18.214,33.391c18.442,0,33.391-14.949,33.391-33.391  S115.277,128,96.835,128z" /><path style="fill:#006064;" d="M63.443,161.391c0,18.442,14.949,33.391,33.391,33.391V128C78.394,128,63.443,142.949,63.443,161.391  z" /><polygon style="fill:#263238;" points="435.2,222.609 435.2,289.391 293.843,289.391 244.369,256 293.843,222.609 " /><rect x="152.487" y="222.609" style="fill:#006064;" width="141.357" height="66.783" /><path style="fill:#263238;" d="M96.835,222.609L78.621,256l18.214,33.391c18.442,0,33.391-14.949,33.391-33.391  S115.277,222.609,96.835,222.609z" /><path style="fill:#006064;" d="M63.443,256c0,18.442,14.949,33.391,33.391,33.391v-66.783C78.394,222.609,63.443,237.558,63.443,256  z" /><polygon style="fill:#263238;" points="435.2,317.217 435.2,384 293.843,384 244.369,350.609 293.843,317.217 " /><rect x="152.487" y="317.217" style="fill:#006064;" width="141.357" height="66.783" /><path style="fill:#263238;" d="M96.835,317.217l-18.214,33.391L96.835,384c18.442,0,33.391-14.949,33.391-33.391  S115.277,317.217,96.835,317.217z" /><path style="fill:#006064;" d="M63.443,350.609c0,18.442,14.949,33.391,33.391,33.391v-66.783  C78.394,317.217,63.443,332.167,63.443,350.609z" /><g></g><g></g><g></g><g></g><g></g><g></g><g></g><g></g><g></g><g></g><g></g><g></g><g></g><g></g><g></g></svg>