<!-- Generator: Adobe Illustrator 19.0.0, SVG Export Plug-In . SVG Version: 6.00 Build 0)  --><svg version="1.1" id="Capa_1" xmlns="http://www.w3.org/2000/svg" xmlns:xlink="http://www.w3.org/1999/xlink" x="0px" y="0px" viewBox="0 0 512 512" style="enable-background:new 0 0 512 512;" xml:space="preserve" height="32" width="32"><circle style="fill:#0CC27C;" cx="256" cy="256" r="256" /><path style="fill:#0DA366;" d="M512,256c0-22.462-2.903-44.245-8.337-65.004L429,116.333l-355.667,250l142.526,142.526  C228.938,510.919,242.342,512,256,512C397.385,512,512,397.385,512,256z" /><rect x="246" y="358.33" style="fill:#FFFFFF;" width="20" height="55.33" /><rect x="256.55" y="358.33" style="fill:#EBEEF0;" width="9.452" height="55.33" /><rect x="83" y="116.33" style="fill:#FFFFFF;" width="346" height="230.67" /><rect x="256.55" y="116.33" style="fill:#E0E0E0;" width="172.45" height="230.67" /><rect x="73.33" y="327" style="fill:#455A64;" width="365.33" height="39.33" /><rect x="256.55" y="327" style="fill:#37474F;" width="182.12" height="39.33" /><rect x="223" y="251" style="fill:#FEC007;" width="41" height="49.47" /><rect x="256.55" y="251" style="fill:#FEB200;" width="7.451" height="49.47" /><rect x="342" y="194.47" style="fill:#BE360C;" width="41" height="106" /><rect x="282.67" y="219.47" style="fill:#FE5722;" width="41" height="81" /><polygon style="fill:#AFBDC4;" points="155.188,244.288 141.045,230.145 204.333,166.858 242.908,205.433 300.952,147.388   315.095,161.53 242.908,233.717 204.333,195.142 " /><polygon style="fill:#8FA3AD;" points="264.503,139.669 264.503,159.669 288.672,159.669 256.548,191.793 256.548,220.078   302.304,174.321 302.304,197.47 322.304,197.47 322.304,139.669 " /><path style="fill:#EBEEF0;" d="M255.667,458.975c-17.277,0-31.333-14.056-31.333-31.333s14.056-31.333,31.333-31.333  S287,410.364,287,427.641S272.943,458.975,255.667,458.975z M255.667,416.308c-6.249,0-11.333,5.084-11.333,11.333  s5.084,11.333,11.333,11.333c6.249,0,11.333-5.084,11.333-11.333C267,421.392,261.916,416.308,255.667,416.308z" /><path style="fill:#CED7DB;" d="M287,427.641c0-16.982-13.582-30.841-30.452-31.311v20.022c5.838,0.452,10.452,5.337,10.452,11.289  s-4.615,10.836-10.452,11.289v20.022C273.418,458.483,287,444.623,287,427.641z" /><g></g><g></g><g></g><g></g><g></g><g></g><g></g><g></g><g></g><g></g><g></g><g></g><g></g><g></g><g></g></svg>