<svg id="Capa_1" enable-background="new 0 0 512 512" height="32" viewBox="0 0 512 512" width="32" xmlns="http://www.w3.org/2000/svg"><g><circle cx="256" cy="256" fill="#58ab65" r="256" /><path d="m188.385 361.888-63.423 45.286s59.519 59.523 103.323 103.328c9.105.981 18.349 1.498 27.715 1.498 141.385 0 256-114.615 256-256 0-19.458-2.183-38.405-6.295-56.62l-105.544-106.677z" fill="#1e8078" /><g><path d="m357.104 333.184h-101.104l38.273 86.114h62.831z" fill="#5ce3ff" /><path d="m111.839 361.888v14.352c0 23.78 19.277 43.057 43.057 43.057h139.377v-95.682l-105.888 38.273z" fill="#aaeffd" /><path d="m367.274 112.444-24.841-19.742-24.08 19.136-24.08-19.136-38.273 134.593 38.273 134.593h19.774v14.352c0 23.681 19.376 43.057 43.057 43.057s43.057-19.376 43.057-43.057v-283.537z" fill="#aaeffd" /><path d="m270.193 111.839-24.08-19.137-24.841 19.742-32.887-19.741v269.185h105.888v-269.186z" fill="#eff7f9" /><g fill="#00232b"><path d="m328.081 323.615h19.136v19.136h-19.136z" /><path d="m328.081 247.07h19.136v19.136h-19.136z" /><path d="m328.081 208.797h19.136v19.136h-19.136z" /><path d="m347.217 285.342h-52.944l-9.568 9.569 9.568 9.568h52.944z" /></g><path d="m241.329 285.342h52.944v19.136h-52.944z" fill="#1e3e45" /><path d="m308.944 208.797h-14.671l-9.568 9.568 9.568 9.568h14.671z" fill="#00232b" /><path d="m241.329 208.797h52.944v19.136h-52.944z" fill="#1e3e45" /><path d="m308.944 247.07h-14.671l-9.568 9.568 9.568 9.568h14.671z" fill="#00232b" /><path d="m241.329 247.07h52.944v19.136h-52.944z" fill="#1e3e45" /><path d="m347.217 170.524h-52.944l-9.568 9.568 9.568 9.568h52.944z" fill="#00232b" /><path d="m241.329 170.524h52.944v19.136h-52.944z" fill="#1e3e45" /></g></g></svg>